<?xml version="1.0" encoding="UTF-8" standalone="no"?>
<svg viewBox="0 0 2000 2000" version="1.1" xmlns="http://www.w3.org/2000/svg" xmlns:svg="http://www.w3.org/2000/svg">
  <radialGradient id="A" cx="983.777" cy="837.394" r="191.755" gradientUnits="userSpaceOnUse">
    <stop offset="0" stop-color="#3853a3" />
    <stop offset="1" stop-color="#000082" />
  </radialGradient>
  <path d="M1175.5 837.4v2.8c-.3 22.7-4.6 44.5-12.2 64.6-4.9 13-11.1 25.3-18.6 36.8-11.5 17.8-25.9 33.5-42.6 46.6h0c-32.6 25.6-73.7 40.9-118.4 40.9-41.5 0-80-13.2-111.4-35.6-13.8-9.9-26.3-21.6-37.1-34.7-4.3-5.3-8.4-10.8-12.1-16.5-1.2-1.8-2.3-3.6-3.4-5.4-3.9-6.4-7.4-13.1-10.6-20-11.1-24.2-17.2-51.2-17.2-79.5 0-4.8.2-9.5.5-14.2 7.2-99.3 90.1-177.6 191.2-177.6 106.1 0 191.9 85.9 191.9 191.8z" fill="url(#A)"/>
  <path d="M872.4 993.5c-13.8-9.9-26.3-21.6-37.1-34.7-5.6 13.5-12.6 26.4-21.4 38.3-10.4 14.1-22.8 25.9-38.5 33.9-12.9 6.6-26.7 10-41.1 11.2-25.9 2.1-50.9-2.3-75.4-10.3-4.1-1.3-6.1-5.3-4.9-9.5.8-2.9 1.7-5.9 2.7-8.8 6.4-19.4 15.1-37.7 27.3-54.2 10.4-14 22.8-25.7 38.4-33.8 11.5-5.9 23.7-9.3 36.5-10.8 17-2 33.7-1 50.3 2.1-11.1-24.2-17.2-51.2-17.2-79.5 0-4.8.2-9.5.5-14.2l47.9 102.2 3.4 7.4 28.6 60.7z" fill="#ffd73d"/>
  <path d="M1322.4 1017.9c-24.5 8-49.5 12.4-75.4 10.3-14.4-1.2-28.2-4.6-41.1-11.2-15.7-8-28.1-19.8-38.5-33.9-9.5-12.9-16.8-26.8-22.6-41.5-11.5 17.8-25.9 33.5-42.6 46.6l35.1-70.8 2.7-5.4 35.6-71.8c-.3 22.7-4.6 44.5-12.2 64.6 19.4-4.5 39-6.3 59.1-4 12.8 1.5 25 4.9 36.5 10.8 15.6 8 28 19.8 38.4 33.8 12.2 16.5 20.9 34.8 27.3 54.3.9 2.9 1.9 5.8 2.7 8.8 1 4.1-.9 8.1-5 9.4z" fill="#ffd73d"/>
  <path d="M1327.3 1008.4l-2.7-8.8c-6.4-19.4-15.1-37.7-27.3-54.3-10.4-14-22.8-25.7-38.4-33.8-11.5-5.9-23.7-9.3-36.5-10.8-20-2.3-39.7-.5-59.1 4l-8.9 2.2c-4.9 1.3-10 2.3-14.5 4.9l-.9.6c-.7 1.2-1.3 2.5-2 3.7.1.4.1.8.2 1.2.2 1.6.5 3.3.8 4.9.5 2.2 1.3 4.4 2 6.6 1.4 4.3 3 8.6 4.6 12.8 5.8 14.7 13.2 28.6 22.6 41.5 10.4 14.1 22.9 25.9 38.5 33.9 12.9 6.6 26.7 10 41.1 11.2 25.9 2.1 50.9-2.3 75.4-10.3 4.3-1.3 6.2-5.3 5.1-9.5zm-136.9-24.8c-16-17-26.1-37.3-33.7-59.4 22.5-6.1 45-9.1 68-5.5-15.4 2-27.9 8.8-35.4 22.9-7.4 14.1-5.9 28.1 1.1 42zm45-34.4c-4.4 8.2-14.8 11.3-23 6.9-8.1-4.4-11.2-14.6-7-22.8 4.3-8.3 14.7-11.5 23.1-7 8.3 4.5 11.4 14.7 6.9 22.9zm4.7 60.7c15.4-2 27.9-8.8 35.3-22.8s5.9-28.1-1.3-42c8.9 5.6 30 42.7 33.8 59.4-22.3 6-44.8 9-67.8 5.4zm-397.8-83.4c-.6-.4-1.2-.8-1.9-1.1-4.2-2.2-8.9-3.1-13.5-4.4-5.9-1.6-11.8-3-17.7-4.1-16.5-3.1-33.3-4.1-50.3-2.1-12.8 1.5-25 4.9-36.5 10.8-15.6 8-28 19.8-38.4 33.8-12.2 16.5-20.9 34.8-27.3 54.2-1 2.9-1.9 5.8-2.7 8.8-1.2 4.2.8 8.2 4.9 9.5 24.5 8 49.5 12.4 75.4 10.3 14.4-1.2 28.2-4.6 41.1-11.2 15.7-8 28.1-19.8 38.5-33.9 8.8-11.9 15.8-24.8 21.4-38.3 2.2-5.2 4.1-10.5 5.9-16 .7-2.2 1.5-4.4 2-6.6.3-1.2.5-2.3.7-3.5.1-.8.2-1.7.4-2.6-.7-1.2-1.3-2.4-2-3.6zm-168.8 91.9c3.8-16.7 24.9-53.8 33.8-59.4-7.2 13.9-8.7 28-1.3 42 7.4 14.1 19.9 20.8 35.3 22.8-23 3.7-45.5.6-67.8-5.4zm95.4-48.3c-8.2 4.4-18.6 1.3-23-6.9-4.5-8.3-1.4-18.5 6.9-22.9 8.4-4.5 18.8-1.3 23.1 7 4.2 8.2 1.1 18.5-7 22.8zm22.1 27.4c7-13.9 8.5-27.9 1.1-41.9-7.4-14.1-19.9-20.8-35.3-22.9 21.4-3.4 42.3-1 63.1 4.2 1.6.4 3.3.8 4.9 1.3l-1.5 4.1c-7.5 20.4-17.3 39.3-32.3 55.2z" fill="#f27021"/>
  <path d="M1074.5 872.8c-.2 1.2-.6 2.5-1.1 3.7-3.8 9.3-8.4 18.2-14.9 26-11.7 14.1-25.7 25.2-43.2 31.6-12.9 4.7-26.3 6.9-40 6.2-13.4-.7-26.2-3.9-38.3-9.9-15.2-7.5-27.7-18.1-37.5-31.9-10.6-14.8-16.8-31.3-18.2-49.4-2-25.6 5.1-48.5 20.5-68.8 10.8-14.3 24.8-24.5 41.3-31.4 1.7-.7 3.4-1.3 5.1-2 .9-.3 1.6-.1 2.2.5.7.7.8 1.6.3 2.3-1.1 1.6-2.3 3.2-3.6 4.6-5.7 5.9-10.7 12.3-14.6 19.5-6.8 12.7-10.3 26.1-10.1 40.6.4 32.1 15 56 41.6 73 10.1 6.4 21.4 10 33.4 11.1 3.1.3 6.2.3 9.5.5 21.8.2 40.9-7.1 57.2-21.9l5.1-4.7c.8-.7 1.7-1.3 2.6-1.7 1.5-.7 3 .5 2.7 2.1z" fill="#ffd73d"/>
  <linearGradient id="B" gradientUnits="userSpaceOnUse" x1="1663.357" y1="340.843" x2="294.677" y2="1676.322">
    <stop offset="0" stop-color="#011224"/>
    <stop offset="0.26893035" stop-color="#2e2aff"/>
    <stop offset=".467" stop-color="#00005e"/>
    <stop offset=".69" stop-color="#002f94"/>
    <stop offset="1" stop-color="#00026a"/>
  </linearGradient>
  <path d="M988.8 105.9c-492.4 0-893 400.6-893 893.1s400.6 893.1 893.1 893.1S1882 1491.5 1882 999s-400.7-893.1-893.2-893.1zm0 1742.8c-468.6 0-849.7-381.2-849.7-849.7s381.2-849.7 849.7-849.7 849.7 381.2 849.7 849.7-381.1 849.7-849.7 849.7z" fill="url(#B)" style="fill:url(#B)"/>
  <path d="M1592.6 958.2c0 333.3-270.2 603.6-603.6 603.6s-603.6-270.2-603.6-603.6c0-198.3 95.6-374.3 243.3-484.3l163.8 349.3c-.3 4.7-.5 9.4-.5 14.2 0 28.4 6.2 55.3 17.2 79.5-16.5-3.1-33.3-4.1-50.3-2.1-12.8 1.5-25 4.9-36.5 10.8-15.6 8-28 19.8-38.4 33.8-12.2 16.5-20.9 34.8-27.3 54.2-1 2.9-1.9 5.8-2.7 8.8-1.2 4.2.8 8.2 4.9 9.5 24.5 8 49.5 12.4 75.4 10.3 14.4-1.2 28.2-4.6 41.1-11.2 15.7-8 28.1-19.8 38.5-33.9 8.8-11.9 15.8-24.8 21.4-38.3 10.8 13.1 23.2 24.8 37.1 34.7l66 140.8 12.4 26.3 32.1 68.4 33.9-68.5 13.1-26.5 72.2-145.8h0c16.6-13.1 31-28.8 42.6-46.6 5.8 14.7 13.2 28.6 22.6 41.5 10.4 14.1 22.9 25.9 38.5 33.9 12.9 6.6 26.7 10 41.1 11.2 25.9 2.1 50.9-2.3 75.4-10.3 4.1-1.3 6.1-5.3 4.9-9.5-.8-2.9-1.7-5.8-2.7-8.8-6.4-19.4-15.1-37.7-27.3-54.3-10.4-14-22.8-25.7-38.4-33.8-11.5-5.9-23.7-9.3-36.5-10.8-20-2.3-39.7-.5-59.1 4 7.6-20.2 11.8-41.9 12.2-64.6L1354.8 478c144.6 110.4 237.8 284.4 237.8 480.2z" fill="#ffd73d"/>
  <path d="m 740.74231,1245.8174 q 240.05549,160 490,10" stroke="none" fill="none" id="smilePath"/>
  <text>
  <textPath href="#smilePath" xml:space="preserve" style="white-space:pre;inline-size:541.712;fill:#000000" x="844.74231" y="1245.8174" transform="translate(-103.39058,96.564555)">
  0x002a6e983da69aaf16a37edb3c6d7b56a51915329f11a35fe77f80d4404e76e2
  </textPath></text>
</svg>
